<svg width="25" height="24" viewBox="0 0 25 24" fill="none" xmlns="http://www.w3.org/2000/svg">
<path d="M14.0049 6V6.4H14.4049V6H14.0049ZM14.0049 3.5L14.2268 3.16718C14.104 3.08535 13.9462 3.07772 13.8161 3.14733C13.6861 3.21694 13.6049 3.35248 13.6049 3.5H14.0049ZM20.0049 7.5L20.2268 7.83282C20.338 7.75863 20.4049 7.63374 20.4049 7.5C20.4049 7.36626 20.338 7.24137 20.2268 7.16718L20.0049 7.5ZM14.0049 11.5H13.6049C13.6049 11.6475 13.6861 11.7831 13.8161 11.8527C13.9462 11.9223 14.104 11.9146 14.2268 11.8328L14.0049 11.5ZM14.0049 9H14.4049V8.6H14.0049V9ZM4.00488 9H3.60488C3.60488 9.22091 3.78397 9.4 4.00488 9.4V9ZM14.4049 6V3.5H13.6049V6H14.4049ZM13.783 3.83282L19.783 7.83282L20.2268 7.16718L14.2268 3.16718L13.783 3.83282ZM19.783 7.16718L13.783 11.1672L14.2268 11.8328L20.2268 7.83282L19.783 7.16718ZM14.4049 11.5V9H13.6049V11.5H14.4049ZM14.0049 5.6H6.90023V6.4H14.0049V5.6ZM3.60488 8.89535V9H4.40488V8.89535H3.60488ZM4.00488 9.4H14.0049V8.6H4.00488V9.4ZM6.90023 5.6C5.08026 5.6 3.60488 7.07538 3.60488 8.89535H4.40488C4.40488 7.51721 5.52209 6.4 6.90023 6.4V5.6Z" fill="#6D8A9B"/>
<path d="M11.0049 18L11.0049 17.6L10.6049 17.6L10.6049 18L11.0049 18ZM11.0049 20.5L10.783 20.8328C10.9058 20.9146 11.0636 20.9223 11.1936 20.8527C11.3237 20.7831 11.4049 20.6475 11.4049 20.5L11.0049 20.5ZM5.00488 16.5L4.783 16.1672C4.67172 16.2414 4.60488 16.3663 4.60488 16.5C4.60488 16.6337 4.67172 16.7586 4.783 16.8328L5.00488 16.5ZM11.0049 12.5L11.4049 12.5C11.4049 12.3525 11.3237 12.2169 11.1936 12.1473C11.0636 12.0777 10.9058 12.0854 10.783 12.1672L11.0049 12.5ZM11.0049 15L10.6049 15L10.6049 15.4L11.0049 15.4L11.0049 15ZM21.0049 15L21.4049 15C21.4049 14.7791 21.2258 14.6 21.0049 14.6L21.0049 15ZM10.6049 18L10.6049 20.5L11.4049 20.5L11.4049 18L10.6049 18ZM11.2268 20.1672L5.22676 16.1672L4.783 16.8328L10.783 20.8328L11.2268 20.1672ZM5.22676 16.8328L11.2268 12.8328L10.783 12.1672L4.783 16.1672L5.22676 16.8328ZM10.6049 12.5L10.6049 15L11.4049 15L11.4049 12.5L10.6049 12.5ZM11.0049 18.4L18.1095 18.4L18.1095 17.6L11.0049 17.6L11.0049 18.4ZM21.4049 15.1046L21.4049 15L20.6049 15L20.6049 15.1046L21.4049 15.1046ZM21.0049 14.6L11.0049 14.6L11.0049 15.4L21.0049 15.4L21.0049 14.6ZM18.1095 18.4C19.9295 18.4 21.4049 16.9246 21.4049 15.1046L20.6049 15.1046C20.6049 16.4828 19.4877 17.6 18.1095 17.6L18.1095 18.4Z" fill="#6D8A9B"/>
</svg>
