<svg width="25" height="24" viewBox="0 0 25 24" fill="none" xmlns="http://www.w3.org/2000/svg">
<path fill-rule="evenodd" clip-rule="evenodd" d="M13.53 4.57386C12.9364 4.07851 12.0734 4.07851 11.4798 4.57386L4.6086 10.3075H6.00491C6.22582 10.3075 6.40491 10.4865 6.40491 10.7075V18.1975C6.40491 19.0812 7.12125 19.7975 8.00491 19.7975H17.0049C17.8886 19.7975 18.6049 19.0812 18.6049 18.1975V10.7075C18.6049 10.4865 18.784 10.3075 19.0049 10.3075L20.4012 10.3075L13.53 4.57386ZM10.9673 3.95961C11.8577 3.21659 13.1521 3.21659 14.0426 3.95961L20.9138 9.69321C21.4881 10.1724 21.1492 11.1075 20.4012 11.1075H19.4049V18.1975C19.4049 19.523 18.3304 20.5975 17.0049 20.5975H8.00491C6.67942 20.5975 5.60491 19.523 5.60491 18.1975V11.1075H4.6086C3.86062 11.1075 3.52175 10.1724 4.09605 9.69321L10.9673 3.95961Z" fill="#0B3C58"/>
<path fill-rule="evenodd" clip-rule="evenodd" d="M8.00499 20.1974H17.005C18.1096 20.1974 19.005 19.302 19.005 18.1974V10.7074H20.4013C20.7753 10.7074 20.9447 10.2398 20.6576 10.0002L13.7864 4.26664C13.0443 3.64745 11.9657 3.64745 11.2236 4.26664L4.35241 10.0002C4.06526 10.2398 4.23469 10.7074 4.60868 10.7074H6.00499V18.1974C6.00499 19.302 6.90042 20.1974 8.00499 20.1974ZM9.49792 15.8123C9.27701 15.8123 9.09792 15.9914 9.09792 16.2123C9.09792 16.4332 9.27701 16.6123 9.49792 16.6123H15.5949C15.8158 16.6123 15.9949 16.4332 15.9949 16.2123C15.9949 15.9914 15.8158 15.8123 15.5949 15.8123H9.49792Z" fill="#0B3C58"/>
</svg>
