<svg width="25" height="24" viewBox="0 0 25 24" fill="none" xmlns="http://www.w3.org/2000/svg">
<path fill-rule="evenodd" clip-rule="evenodd" d="M3.30493 5.4998C3.30493 4.00864 4.51376 2.7998 6.00493 2.7998H19.0049C20.4961 2.7998 21.7049 4.00864 21.7049 5.4998V18.4998C21.7049 19.991 20.4961 21.1998 19.0049 21.1998H6.00493C4.51376 21.1998 3.30493 19.991 3.30493 18.4998V5.4998ZM6.00493 4.1998C5.28696 4.1998 4.70493 4.78183 4.70493 5.4998V18.4998C4.70493 19.2178 5.28696 19.7998 6.00493 19.7998H19.0049C19.7229 19.7998 20.3049 19.2178 20.3049 18.4998V5.4998C20.3049 4.78183 19.7229 4.1998 19.0049 4.1998H6.00493Z" fill="#4D677C"/>
<path fill-rule="evenodd" clip-rule="evenodd" d="M4.00513 5.5C4.00513 4.39543 4.90056 3.5 6.00513 3.5H19.0051C20.1097 3.5 21.0051 4.39543 21.0051 5.5V18.5C21.0051 19.6046 20.1097 20.5 19.0051 20.5H6.00513C4.90056 20.5 4.00513 19.6046 4.00513 18.5V5.5ZM7.50513 13.3C7.89173 13.3 8.20513 13.6134 8.20513 14V17C8.20513 17.3866 7.89173 17.7 7.50513 17.7C7.11853 17.7 6.80513 17.3866 6.80513 17V14C6.80513 13.6134 7.11853 13.3 7.50513 13.3ZM11.5385 10C11.5385 9.6134 11.2251 9.3 10.8385 9.3C10.4519 9.3 10.1385 9.6134 10.1385 10V17C10.1385 17.3866 10.4519 17.7 10.8385 17.7C11.2251 17.7 11.5385 17.3866 11.5385 17V10ZM14.1717 10.8C14.5583 10.8 14.8717 11.1134 14.8717 11.5V17C14.8717 17.3866 14.5583 17.7 14.1717 17.7C13.7851 17.7 13.4717 17.3866 13.4717 17V11.5C13.4717 11.1134 13.7851 10.8 14.1717 10.8ZM18.2051 7C18.2051 6.6134 17.8917 6.3 17.5051 6.3C17.1185 6.3 16.8051 6.6134 16.8051 7V17C16.8051 17.3866 17.1185 17.7 17.5051 17.7C17.8917 17.7 18.2051 17.3866 18.2051 17V7Z" fill="#0B3C58"/>
</svg>
